# xmcd
#
# Track frame offsets: 
#        150
#        13800
#        26925
#        39135
#        51007
#        62534
#        74793
#        86714
#        100741
#        114419
#        127848
#        140368
#        151940
#        163365
#        174949
#        188802
#        201490
#        215605
#
# Disc length: 3080 seconds
#
# Revision: 0
# Processed by: cddbd v1.5.2PL0 Copyright (c) Steve Scherf et al.
# Submitted via: ExactAudioCopy v1.0b3
#
DISCID=fe0c0612
DTITLE=Various Artist - Imagine The Blues CD2
DYEAR=2011
DGENRE=Blues
TTITLE0=B.B. King - I Want Got Married
TTITLE1=John Lee Hooker - Every Night
TTITLE2=Little Walter - Last Night
TTITLE3=Lightnin’ Hopkins - dont't think 'cause you're pretty
TTITLE4=B.B. King - she's a mean women
TTITLE5=Jimmy Witherspoon - daddy pinocchio
TTITLE6=Joe Turner - trouble blues
TTITLE7=Pee Wee Crayton - blues after hours
TTITLE8=Lonnie Johnson - tomorrow night
TTITLE9=Big Maceo Merriweather - chicago breakdown
TTITLE10=Big Joe Williams - baby please don't go
TTITLE11=Memphis Minnie - in my girlish days
TTITLE12=Tampa Red - it huts me too
TTITLE13=Blind Boy Fuller - jitterbug rag
TTITLE14=john lee "sonny boy" williamson - goog morning little schoolg
TTITLE14=irl
TTITLE15=Robert Johnson - traveling riverside blues
TTITLE16=Josh White - milk cow blues
TTITLE17=Bessie Smith - down hearted blues
EXTD=
EXTT0=
EXTT1=
EXTT2=
EXTT3=
EXTT4=
EXTT5=
EXTT6=
EXTT7=
EXTT8=
EXTT9=
EXTT10=
EXTT11=
EXTT12=
EXTT13=
EXTT14=
EXTT15=
EXTT16=
EXTT17=
PLAYORDER=
